<svg width="512" height="512" viewBox="0 0 512 512" fill="none" xmlns="http://www.w3.org/2000/svg">
<path d="M142.752 437.13C173.202 445.732 213.421 450.47 256 450.47C298.579 450.47 338.798 445.733 369.248 437.13C406.501 426.607 425.39 411.373 425.39 391.855C425.39 372.336 406.501 357.104 369.248 346.581C352.225 341.772 332.14 338.178 310.304 335.937C353.065 262.951 395.44 180.31 395.44 139.439C395.44 62.552 332.888 0 256 0C179.112 0 116.56 62.552 116.56 139.439C116.56 180.309 158.934 262.948 201.695 335.934C179.859 338.175 159.777 341.771 142.753 346.581C105.5 357.104 86.611 372.337 86.611 391.855C86.61 411.373 105.499 426.606 142.752 437.13ZM256 30C316.346 30 365.44 79.094 365.44 139.439C365.44 170.435 327.088 251.687 262.85 356.789C260.728 360.261 257.352 360.635 255.999 360.635C254.647 360.635 251.27 360.261 249.148 356.789C184.91 251.687 146.558 170.436 146.558 139.439C146.56 79.094 195.654 30 256 30ZM156.355 373.988C174.24 369.433 195.669 366.236 218.768 364.573C220.371 367.217 221.966 369.839 223.551 372.432C230.517 383.83 242.647 390.633 255.999 390.633C269.352 390.633 281.481 383.829 288.447 372.432C290.032 369.838 291.628 367.216 293.231 364.572C316.33 366.235 337.758 369.433 355.644 373.988C383.06 380.971 393.076 388.832 395.135 391.854C393.075 394.877 383.061 402.738 355.645 409.72C328.432 416.652 293.043 420.469 255.999 420.469C218.955 420.469 183.566 416.652 156.354 409.72C128.938 402.738 118.923 394.876 116.864 391.854C118.924 388.832 128.939 380.972 156.355 373.988Z" fill="url(#paint0_linear)"/>
<path d="M468.329 358.972C461.066 354.983 451.947 357.636 447.96 364.896C443.971 372.157 446.623 381.277 453.884 385.265C471.752 395.081 482 405.963 482 415.121C482 426.322 466.13 443.682 421.587 458.815C377.582 473.767 318.775 482 256 482C193.225 482 134.418 473.767 90.413 458.815C45.87 443.683 30 426.322 30 415.121C30 405.963 40.248 395.081 58.116 385.264C65.377 381.276 68.029 372.156 64.04 364.895C60.051 357.635 50.934 354.982 43.671 358.971C23.749 369.916 0 388.542 0 415.121C0 435.495 14.012 464.543 80.762 487.221C127.794 503.2 190.028 512 256 512C321.972 512 384.206 503.2 431.238 487.221C497.988 464.543 512 435.495 512 415.121C512 388.542 488.251 369.916 468.329 358.972Z" fill="url(#paint1_linear)"/>
<path d="M312.047 129.865C312.047 98.962 286.904 73.82 256 73.82C225.096 73.82 199.953 98.962 199.953 129.865C199.953 160.769 225.096 185.911 256 185.911C286.904 185.911 312.047 160.77 312.047 129.865ZM229.953 129.865C229.953 115.504 241.638 103.82 256 103.82C270.362 103.82 282.047 115.504 282.047 129.865C282.047 144.226 270.362 155.911 256 155.911C241.638 155.911 229.953 144.227 229.953 129.865Z" fill="url(#paint2_linear)"/>
<defs>
<linearGradient id="paint0_linear" x1="4.99999" y1="450" x2="256.001" y2="450.47" gradientUnits="userSpaceOnUse">
<stop offset="0.9999" stop-color="#57565C"/>
<stop offset="1" stop-color="#3E3D42"/>
</linearGradient>
<linearGradient id="paint1_linear" x1="0" y1="512" x2="256" y2="512" gradientUnits="userSpaceOnUse">
<stop offset="0.9999" stop-color="#57565C"/>
<stop offset="1" stop-color="#3E3D42"/>
</linearGradient>
<linearGradient id="paint2_linear" x1="200" y1="130" x2="256" y2="130" gradientUnits="userSpaceOnUse">
<stop offset="0.9999" stop-color="#57565C"/>
<stop offset="1" stop-color="#3E3D42"/>
</linearGradient>
</defs>
</svg>
